<?xml version="1.0" encoding="utf-8"?>
<!-- Generator: Adobe Illustrator 19.0.0, SVG Export Plug-In . SVG Version: 6.00 Build 0)  -->
<svg version="1.1" xmlns="http://www.w3.org/2000/svg" xmlns:xlink="http://www.w3.org/1999/xlink" x="0px" y="0px"
	 viewBox="177 -87 966 966" style="enable-background:new 177 -87 966 966;" xml:space="preserve">
<style type="text/css">
	.st0{display:none;}
	.st1{display:inline;fill:#231F20;}
	.st2{opacity:0.5;}
	.st3{fill:#EFEFEF;stroke:#EDEDED;}
	.st4{fill:none;stroke:#231F20;stroke-width:8;}
</style>
<g id="Layer_2" class="st0">
	<rect x="206" y="45" class="st1" width="900" height="718"/>
</g>
<g id="Layer_1">
	<g id="SnG" class="st2">
		<g>
			<g>
				<path class="st3" d="M460.1,274.5c-4.6,5-6.9,10.2-6.9,15.6c0,6.1,3.9,14.2,11.7,24.3l75,96.5c13.3,17.1,19.9,34.7,19.9,52.8
					c0,16.3-5.4,30-16.3,41c-10.9,11.1-24.4,16.6-40.6,16.6c-4.5,0-9.9-0.4-16.4-1.3c4.8-4.6,7.2-9.3,7.2-14.1
					c0-6.8-4-15.4-12.1-25.8L407,384.3c-13.5-17.3-20.3-34.9-20.3-52.9c0-16.8,5.6-30.7,16.9-41.6c11.3-10.9,25.4-16.3,42.4-16.3
					c3,0,7.4,0.3,13.2,1H460.1z M390.1,521.2V408.4l87.3,112.9L390.1,521.2L390.1,521.2z M550.4,378.2l-81.1-104.7h81.1V378.2z"/>
				<path class="st3" d="M641,521.2h-68.3V344.9H641V521.2z M659.9,344.9h8.2c24.2,0,40.5,4.7,48.7,14.2
					c7.5,8.6,11.2,25.3,11.2,50.2v111.9h-68.2V344.9H659.9z"/>
				<path class="st3" d="M840.3,524.3c-64-5.2-96-46.9-96-125.1c0-78,32-119.9,96-125.6V524.3z M855,273.5h85.8V369L855,273.5z
					 M861.6,524.3V398.1h88.9c0,0.3,0.1,2.7,0.3,7.2s0.3,8.2,0.3,11.2c0,31.4-7,56.2-21.1,74.5C914.8,511.1,891.9,522.1,861.6,524.3
					z"/>
			</g>
		</g>
		<g>
			<g>
				<path class="st4" d="M460.1,274.5c-4.6,5-6.9,10.2-6.9,15.6c0,6.1,3.9,14.2,11.7,24.3l75,96.5c13.3,17.1,19.9,34.7,19.9,52.8
					c0,16.3-5.4,30-16.3,41c-10.9,11.1-24.4,16.6-40.6,16.6c-4.5,0-9.9-0.4-16.4-1.3c4.8-4.6,7.2-9.3,7.2-14.1
					c0-6.8-4-15.4-12.1-25.8L407,384.3c-13.5-17.3-20.3-34.9-20.3-52.9c0-16.8,5.6-30.7,16.9-41.6c11.3-10.9,25.4-16.3,42.4-16.3
					c3,0,7.4,0.3,13.2,1H460.1z M390.1,521.2V408.4l87.3,112.9L390.1,521.2L390.1,521.2z M550.4,378.2l-81.1-104.7h81.1V378.2z"/>
				<path class="st4" d="M641,521.2h-68.3V344.9H641V521.2z M659.9,344.9h8.2c24.2,0,40.5,4.7,48.7,14.2
					c7.5,8.6,11.2,25.3,11.2,50.2v111.9h-68.2V344.9H659.9z"/>
				<path class="st4" d="M840.3,524.3c-64-5.2-96-46.9-96-125.1c0-78,32-119.9,96-125.6V524.3z M855,273.5h85.8V369L855,273.5z
					 M861.6,524.3V398.1h88.9c0,0.3,0.1,2.7,0.3,7.2s0.3,8.2,0.3,11.2c0,31.4-7,56.2-21.1,74.5C914.8,511.1,891.9,522.1,861.6,524.3
					z"/>
			</g>
		</g>
	</g>
</g>
</svg>
