<?xml version="1.0" encoding="utf-8"?>
<!-- Generator: Adobe Illustrator 19.0.0, SVG Export Plug-In . SVG Version: 6.00 Build 0)  -->
<svg version="1.1" id="Layer_1" xmlns="http://www.w3.org/2000/svg" xmlns:xlink="http://www.w3.org/1999/xlink" x="0px" y="0px"
	 viewBox="101 94 1050 398.6" style="enable-background:new 101 94 1050 398.6;" xml:space="preserve">
<style type="text/css">
	.st0{display:none;}
	.st1{fill:#231F20;}
	.st2{font-family:'SISTEMASFONTBT';}
	.st3{font-size:80.4006px;}
</style>
<g id="Background_xA0_Image_1_" class="st0">
	
		<image style="display:inline;overflow:visible;enable-background:new    ;" width="1472" height="436" id="Background_xA0_Image" xlink:href="574FEC6.jpg"  transform="matrix(0.3077 0 0 0.3077 624.8409 358.382)">
	</image>
</g>
<g id="Logo_1_">
	<g id="Ellipse_1">
		<g>
			<path class="st1" d="M207.3,255.5c2,0,4.1,0,6.1,0.2c13.5,0.8,26.4,4.2,38.4,10.2c11.6,5.7,21.8,13.6,30.5,23.3
				c8.6,9.7,15.2,20.8,19.5,33c4.5,12.6,6.3,25.8,5.5,39.4c-1.6,25.6-12.7,49.4-31.4,66.9c-18.6,17.5-42.9,27.1-68.4,27.1
				c-2,0-4.1,0-6.1-0.2c-13.5-0.8-26.4-4.2-38.4-10.2c-11.6-5.7-21.8-13.6-30.5-23.3c-8.6-9.7-15.2-20.8-19.5-33
				c-4.5-12.6-6.3-25.8-5.5-39.4c1.6-25.6,12.7-49.4,31.4-66.9C157.5,265.2,181.8,255.5,207.3,255.5 M207.3,249.5
				c-55.7,0-102.4,43.4-105.8,99.8C97.9,407.8,142.5,458,201,461.5c2.1,0.1,4.3,0.2,6.5,0.2c55.7,0,102.4-43.4,105.8-99.8
				c3.6-58.5-41-108.8-99.5-112.3C211.6,249.5,209.4,249.5,207.3,249.5L207.3,249.5z"/>
		</g>
	</g>
	<g id="Ellipse_1_copy">
		<g>
			<path class="st1" d="M207,273.8c1.7,0,3.3,0,5,0.1c21.7,1.3,41.7,11,56.2,27.3c14.4,16.3,21.7,37.3,20.4,59.1
				c-2.6,43.1-38.3,76.8-81.4,76.8c-1.7,0-3.3,0-5-0.1c-21.7-1.3-41.7-11-56.2-27.3c-14.4-16.3-21.7-37.3-20.4-59.1
				C128.1,307.5,163.9,273.8,207,273.8 M207,267.7c-46.1,0-84.7,35.9-87.5,82.5c-2.9,48.4,34,90,82.3,92.9c1.8,0.1,3.6,0.1,5.4,0.1
				c46.1,0,84.7-35.9,87.5-82.5c2.9-48.4-34-90-82.3-92.9C210.5,267.8,208.7,267.7,207,267.7L207,267.7z"/>
		</g>
	</g>
	<g id="Rectangle_1_copy">
		<g>
			<rect x="327.8" y="438.3" class="st1" width="68.7" height="23.4"/>
		</g>
	</g>
	<g id="Rectangle_1_copy_3">
		<g>
			<rect x="580.1" y="438.3" class="st1" width="68.7" height="23.4"/>
		</g>
	</g>
	<g id="Rectangle_1_copy_4">
		<g>
			<rect x="496.1" y="438.3" class="st1" width="68.7" height="23.4"/>
		</g>
	</g>
	<g id="Rectangle_1_copy_5">
		<g>
			<rect x="411.9" y="438.3" class="st1" width="68.7" height="23.4"/>
		</g>
	</g>
	<g id="Rectangle_1_copy_6">
		<g>
			<rect x="748.4" y="438.3" class="st1" width="68.7" height="23.4"/>
		</g>
	</g>
	<g id="Rectangle_1_copy_7">
		<g>
			<rect x="664.3" y="438.3" class="st1" width="68.7" height="23.4"/>
		</g>
	</g>
	<g id="SnG">
		<text transform="matrix(0.9998 8.798236e-004 -8.799995e-004 1 141.2064 383.7915)" class="st1 st2 st3">S</text>
		<text transform="matrix(0.9998 8.798236e-004 -8.799995e-004 1 183.6224 383.8288)" class="st1 st2 st3">n</text>
		<text transform="matrix(0.9998 8.798236e-004 -8.799995e-004 1 223.6068 383.864)" class="st1 st2 st3">G</text>
	</g>
	<path class="st1" d="M265.3,438.3c-15.7,19-58.4,20.1-58.4,20.1v3.3h104.1v-23.4"/>
	<path class="st1" d="M146.7,273.1c15.7-19,58.4-20.1,58.4-20.1v-3.3H101v23.4"/>
</g>
</svg>
