<?xml version="1.0" encoding="utf-8"?>
<!-- Generator: Adobe Illustrator 19.0.0, SVG Export Plug-In . SVG Version: 6.00 Build 0)  -->
<svg version="1.1" xmlns="http://www.w3.org/2000/svg" xmlns:xlink="http://www.w3.org/1999/xlink" x="0px" y="0px"
	 viewBox="0 0 966 966" style="enable-background:new 0 0 966 966;" xml:space="preserve">
<style type="text/css">
	.st0{opacity:0.8;enable-background:new    ;}
	.st1{fill:#EDEDED;}
	.st2{opacity:0.8;}
	.st3{fill:none;}
	.st4{fill:#EFEFEF;stroke:#EDEDED;}
</style>
<g id="Ellipse_1_1_" class="st0">
	<g id="Ellipse_1">
		<g>
			<path class="st1" d="M483,23.4c62.1,0,122.2,12.1,178.9,36.1C716.6,82.7,765.7,115.8,808,158c42.2,42.2,75.4,91.4,98.5,146.1
				c24,56.6,36.1,116.8,36.1,178.9s-12.1,122.2-36.1,178.9C883.3,716.6,850.2,765.7,808,808c-42.2,42.2-91.4,75.4-146.1,98.5
				c-56.6,24-116.8,36.1-178.9,36.1s-122.2-12.1-178.9-36.1C249.4,883.3,200.3,850.2,158,808c-42.2-42.2-75.4-91.4-98.5-146.1
				c-24-56.6-36.1-116.8-36.1-178.9s12.1-122.2,36.1-178.9C82.7,249.4,115.8,200.3,158,158c42.2-42.2,91.4-75.4,146.1-98.5
				C360.8,35.6,420.9,23.4,483,23.4 M483,0C216.2,0,0,216.2,0,483s216.2,483,483,483s483-216.2,483-483S749.8,0,483,0L483,0z"/>
		</g>
	</g>
</g>
<g id="Ellipse_1_copy_1_" class="st0">
	<g id="Ellipse_1_copy">
		<g>
			<path class="st1" d="M482.5,90.4c52.9,0,104.3,10.4,152.6,30.8c46.7,19.7,88.6,48,124.6,84c36,36,64.3,77.9,84,124.6
				c20.4,48.3,30.8,99.7,30.8,152.6s-10.4,104.3-30.8,152.6c-19.7,46.7-48,88.6-84,124.6c-36,36-77.9,64.3-124.6,84
				c-48.3,20.4-99.7,30.8-152.6,30.8s-104.3-10.4-152.6-30.8c-46.7-19.7-88.6-48-124.6-84c-36-36-64.3-77.9-84-124.6
				c-20.4-48.3-30.8-99.7-30.8-152.6s10.4-104.3,30.8-152.6c19.7-46.7,48-88.6,84-124.6c36-36,77.9-64.3,124.6-84
				C378.2,100.8,429.6,90.4,482.5,90.4 M482.5,67C253,67,67,253,67,482.5S253,898,482.5,898S898,712,898,482.5S712,67,482.5,67
				L482.5,67z"/>
		</g>
	</g>
</g>
<g id="SnG" class="st2">
	<g>
		<path class="st3" d="M483.5-49.6c316.8,0,573.6,256.8,573.6,573.6s-256.8,573.6-573.6,573.6S-90.1,840.8-90.1,524
			S483.5-49.6,483.5-49.6z"/>
		<path class="st4" d="M283.1,361.5c-4.6,5-6.9,10.2-6.9,15.6c0,6.1,3.9,14.2,11.7,24.3l75,96.5c13.3,17.1,19.9,34.7,19.9,52.8
			c0,16.3-5.4,30-16.3,41c-10.9,11.1-24.4,16.6-40.6,16.6c-4.5,0-9.9-0.4-16.4-1.3c4.8-4.6,7.2-9.3,7.2-14.1c0-6.8-4-15.4-12.1-25.8
			L230,471.3c-13.5-17.3-20.3-34.9-20.3-52.9c0-16.8,5.6-30.7,16.9-41.6c11.3-10.9,25.4-16.3,42.4-16.3c3,0,7.4,0.3,13.2,1H283.1z
			 M213.1,608.2V495.4l87.3,112.9H213.1z M373.4,465.2l-81.1-104.7h81.1V465.2z"/>
		<path class="st4" d="M464,608.2h-68.3V431.9H464V608.2z M482.9,431.9h8.2c24.2,0,40.5,4.7,48.7,14.2c7.5,8.6,11.2,25.3,11.2,50.2
			v111.9h-68.2V431.9z"/>
		<path class="st4" d="M663.3,611.3c-64-5.2-96-46.9-96-125.1c0-78,32-119.9,96-125.6V611.3z M678,360.5h85.8V456L678,360.5z
			 M684.6,611.3V485.1h88.9c0,0.3,0.1,2.7,0.3,7.2c0.2,4.5,0.3,8.2,0.3,11.2c0,31.4-7,56.2-21.1,74.5
			C737.8,598.1,714.9,609.1,684.6,611.3z"/>
	</g>
</g>
</svg>
